<svg width="40" height="49" viewBox="0 0 40 49" fill="none" xmlns="http://www.w3.org/2000/svg">
<path d="M19.7756 29.1633C24.9603 29.1633 29.1634 24.9602 29.1634 19.7755C29.1634 14.5907 24.9603 10.3877 19.7756 10.3877C14.5909 10.3877 10.3878 14.5907 10.3878 19.7755C10.3878 24.9602 14.5909 29.1633 19.7756 29.1633Z" stroke="#12A8D3" stroke-width="2" stroke-linecap="round" stroke-linejoin="round"/>
<path d="M38.5511 19.7756C38.5511 36.2563 24.0898 45.5002 20.5495 47.5217C20.3135 47.6565 20.0464 47.7274 19.7745 47.7274C19.5027 47.7274 19.2356 47.6565 18.9995 47.5217C15.4593 45.4981 1 36.2522 1 19.7756C1 14.796 2.97813 10.0203 6.49924 6.49924C10.0203 2.97813 14.796 1 19.7756 1C24.7552 1 29.5308 2.97813 33.0519 6.49924C36.573 10.0203 38.5511 14.796 38.5511 19.7756Z" stroke="#12A8D3" stroke-width="2" stroke-linecap="round" stroke-linejoin="round"/>
</svg>
