<svg width="44" height="44" viewBox="0 0 44 44" fill="none" xmlns="http://www.w3.org/2000/svg">
<path d="M3.83643 2.89087H12.3458V11.4006" stroke="#12A8D3" stroke-width="1.5" stroke-linecap="round" stroke-linejoin="round"/>
<path d="M38.8196 40.7108H30.3102V32.2014" stroke="#12A8D3" stroke-width="1.5" stroke-linecap="round" stroke-linejoin="round"/>
<path d="M40.7108 3.83643V12.3458H32.2014" stroke="#12A8D3" stroke-width="1.5" stroke-linecap="round" stroke-linejoin="round"/>
<path d="M2.89087 39.7652V31.2559H11.4006" stroke="#12A8D3" stroke-width="1.5" stroke-linecap="round" stroke-linejoin="round"/>
<path d="M1.17349 24.6373C1.05919 23.7177 1 22.787 1 21.8008C1 13.8268 5.5058 6.80581 12.1798 3.34167" stroke="#12A8D3" stroke-width="1.5" stroke-linecap="round" stroke-linejoin="round"/>
<path d="M23.6917 42.528C23.0789 42.576 22.4509 42.6017 21.8009 42.6017C14.0007 42.6017 7.15321 38.2694 3.6001 31.8541" stroke="#12A8D3" stroke-width="1.5" stroke-linecap="round" stroke-linejoin="round"/>
<path d="M42.4096 18.9644C42.528 19.8951 42.6017 20.8481 42.6017 21.8008C42.6017 29.8597 38.0073 36.7958 31.3333 40.26" stroke="#12A8D3" stroke-width="1.5" stroke-linecap="round" stroke-linejoin="round"/>
<path d="M18.9644 1.20699C19.8988 1.07744 20.8515 1 21.8008 1C29.8597 1 36.7958 5.59441 40.26 12.2684" stroke="#12A8D3" stroke-width="1.5" stroke-linecap="round" stroke-linejoin="round"/>
</svg>
