<svg width="51" height="43" viewBox="0 0 51 43" fill="none" xmlns="http://www.w3.org/2000/svg">
<path d="M29.8344 12.8979C34.2718 15.9602 40.0387 23.3342 40.0387 29.9773C40.0387 36.7159 32.7493 42.177 25.3992 42.177C18.0491 42.177 10.7596 36.7159 10.7596 29.9773C10.7596 23.3342 16.5265 15.9602 20.964 12.8979L17.5914 4.85805C17.4556 4.62098 17.3711 4.35805 17.3434 4.08627C17.3156 3.81449 17.3452 3.5399 17.4302 3.28028C17.5153 3.02065 17.6539 2.78177 17.8371 2.57909C18.0202 2.3764 18.2439 2.21443 18.4937 2.10364C22.9761 0.632119 27.8115 0.632119 32.2939 2.10364C32.5445 2.21339 32.7693 2.3746 32.9536 2.57683C33.138 2.77906 33.2777 3.01779 33.3638 3.27751C33.4499 3.53724 33.4804 3.81217 33.4534 4.08445C33.4264 4.35674 33.3424 4.62031 33.207 4.85805L29.8344 12.8979Z" stroke="#12A8D3" stroke-width="1.5" stroke-linecap="round" stroke-linejoin="round"/>
<path d="M20.964 12.8978H29.8345" stroke="#12A8D3" stroke-width="1.5" stroke-linecap="round" stroke-linejoin="round"/>
<path d="M9.13308 40.5502C2.62662 40.5502 1 34.0438 1 29.4589C1.09579 26.7723 1.85491 24.1511 3.20966 21.8291C4.56441 19.5071 6.4727 17.5564 8.76438 16.151L6.02299 12.1972C5.85404 11.9533 5.75505 11.6677 5.73673 11.3716C5.71841 11.0754 5.78147 10.7798 5.91907 10.5169C6.05668 10.254 6.26358 10.0337 6.51739 9.87993C6.7712 9.72617 7.06223 9.64476 7.35899 9.64453H12.3863" stroke="#12A8D3" stroke-width="1.5" stroke-linecap="round" stroke-linejoin="round"/>
<path d="M21.7752 33.1633C22.2448 33.7804 22.8562 34.2753 23.5577 34.6061C24.2591 34.9368 25.03 35.0936 25.8049 35.0631C28.2752 35.0631 30.2792 33.5602 30.2792 31.7058C30.2792 29.8515 28.2752 28.3528 25.8049 28.3528C23.3346 28.3528 21.3328 26.8498 21.3328 24.9955C21.3328 23.1411 23.3368 21.6403 25.8049 21.6403C26.5797 21.6089 27.3507 21.765 28.0522 22.0954C28.7538 22.4258 29.3652 22.9207 29.8345 23.538" stroke="#12A8D3" stroke-width="1.5" stroke-linecap="round" stroke-linejoin="round"/>
<path d="M25.8048 35.0631V37.297" stroke="#12A8D3" stroke-width="1.5" stroke-linecap="round" stroke-linejoin="round"/>
<path d="M25.8048 19.4043V21.6404" stroke="#12A8D3" stroke-width="1.5" stroke-linecap="round" stroke-linejoin="round"/>
<path d="M41.6655 40.5502C48.1719 40.5502 49.7985 34.0438 49.7985 29.4589C49.7028 26.7723 48.9436 24.1511 47.5889 21.8291C46.2341 19.5071 44.3258 17.5564 42.0342 16.151L44.7756 12.1972C44.9445 11.9533 45.0435 11.6677 45.0618 11.3716C45.0801 11.0754 45.0171 10.7798 44.8795 10.5169C44.7419 10.254 44.535 10.0337 44.2812 9.87993C44.0274 9.72617 43.7363 9.64476 43.4396 9.64453H38.4122" stroke="#12A8D3" stroke-width="1.5" stroke-linecap="round" stroke-linejoin="round"/>
</svg>
