<svg width="39" height="39" viewBox="0 0 39 39" fill="none" xmlns="http://www.w3.org/2000/svg">
<path d="M21.7346 2.32509L26.4927 12.5788H35.7497C36.2166 12.5604 36.6777 12.6867 37.07 12.9404C37.4623 13.1941 37.7668 13.5627 37.9417 13.9959C38.1166 14.4291 38.1534 14.9058 38.0472 15.3607C37.9409 15.8157 37.6968 16.2267 37.3481 16.5377L29.3254 24.4431L33.778 34.669C33.9723 35.1372 34.0151 35.6546 33.9003 36.1483C33.7854 36.6421 33.5187 37.0874 33.1377 37.4218C32.7567 37.7562 32.2805 37.9627 31.776 38.0125C31.2715 38.0622 30.7641 37.9527 30.3251 37.6992L19.5654 31.6482L8.79336 37.6992C8.35436 37.9527 7.84697 38.0622 7.34249 38.0125C6.838 37.9627 6.36179 37.7562 5.98077 37.4218C5.59975 37.0874 5.33308 36.6421 5.21824 36.1483C5.10339 35.6546 5.14615 35.1372 5.3405 34.669L9.79311 24.4493L1.77038 16.5438C1.41893 16.2352 1.17166 15.8253 1.06252 15.3705C0.95338 14.9157 0.987735 14.4382 1.16086 14.0037C1.33399 13.5692 1.63741 13.1989 2.02942 12.9438C2.42144 12.6886 2.88284 12.5611 3.35025 12.5788H12.6072L17.3592 2.32509C17.568 1.92548 17.8824 1.5907 18.268 1.3571C18.6537 1.1235 19.096 1 19.5469 1C19.9978 1 20.4401 1.1235 20.8258 1.3571C21.2115 1.5907 21.5258 1.92548 21.7346 2.32509V2.32509Z" stroke="#12A8D3" stroke-width="1.5" stroke-linecap="round" stroke-linejoin="round"/>
</svg>
