<svg width="41" height="44" viewBox="0 0 41 44" fill="none" xmlns="http://www.w3.org/2000/svg">
<path d="M20.293 3.75614V1" stroke="#12A8D3" stroke-width="1.5" stroke-linecap="round" stroke-linejoin="round"/>
<path d="M31.9865 8.60149L33.936 6.65198" stroke="#12A8D3" stroke-width="1.5" stroke-linecap="round" stroke-linejoin="round"/>
<path d="M36.8298 20.293H39.586" stroke="#12A8D3" stroke-width="1.5" stroke-linecap="round" stroke-linejoin="round"/>
<path d="M31.9865 31.9865L33.936 33.936" stroke="#12A8D3" stroke-width="1.5" stroke-linecap="round" stroke-linejoin="round"/>
<path d="M8.59966 8.60149L6.65015 6.65198" stroke="#12A8D3" stroke-width="1.5" stroke-linecap="round" stroke-linejoin="round"/>
<path d="M3.75614 20.293H1" stroke="#12A8D3" stroke-width="1.5" stroke-linecap="round" stroke-linejoin="round"/>
<path d="M8.59966 31.9865L6.65015 33.936" stroke="#12A8D3" stroke-width="1.5" stroke-linecap="round" stroke-linejoin="round"/>
<path d="M14.7808 29.8439V34.07C14.7808 35.5319 15.3615 36.934 16.3953 37.9677C17.429 39.0015 18.8311 39.5822 20.293 39.5822C21.755 39.5822 23.1571 39.0015 24.1908 37.9677C25.2246 36.934 25.8053 35.5319 25.8053 34.07V29.8439" stroke="#12A8D3" stroke-width="1.5" stroke-linecap="round" stroke-linejoin="round"/>
<path d="M20.293 31.3176C26.3817 31.3176 31.3176 26.3817 31.3176 20.293C31.3176 14.2043 26.3817 9.26843 20.293 9.26843C14.2043 9.26843 9.26843 14.2043 9.26843 20.293C9.26843 26.3817 14.2043 31.3176 20.293 31.3176Z" stroke="#12A8D3" stroke-width="1.5" stroke-linecap="round" stroke-linejoin="round"/>
<path d="M20.293 39.5859V42.3421" stroke="#12A8D3" stroke-width="1.5" stroke-linecap="round" stroke-linejoin="round"/>
</svg>
