<svg width="33" height="33" viewBox="0 0 33 33" fill="none" xmlns="http://www.w3.org/2000/svg">
<circle cx="16.1229" cy="16.8823" r="16" fill="white" fill-opacity="0.05"/>
<path fill-rule="evenodd" clip-rule="evenodd" d="M8.75604 11.4526C8.75604 10.9764 8.92197 10.5835 9.25381 10.2739C9.58565 9.96434 10.0171 9.80957 10.548 9.80957C11.0695 9.80957 11.4914 9.96196 11.8137 10.2668C12.1456 10.5811 12.3115 10.9906 12.3115 11.4955C12.3115 11.9527 12.1503 12.3336 11.828 12.6384C11.4961 12.9528 11.06 13.1099 10.5196 13.1099H10.5053C9.98386 13.1099 9.56195 12.9528 9.23959 12.6384C8.91722 12.3241 8.75604 11.9288 8.75604 11.4526ZM8.94056 23.9554V14.4115H12.0978V23.9554H8.94056ZM17.0047 23.954H13.8475C13.8664 21.0775 13.8759 18.844 13.8759 17.2533C13.8759 15.6627 13.8664 14.715 13.8475 14.4102H17.0047V15.7674L16.9905 15.796H17.0047V15.7674C17.6874 14.7102 18.6402 14.1816 19.8633 14.1816C20.9536 14.1816 21.8306 14.5459 22.4943 15.2745C23.158 16.0032 23.4899 17.0723 23.4899 18.482V23.954H20.3326V18.8535C20.3326 17.4152 19.8017 16.6961 18.7398 16.6961C18.3321 16.6961 17.9931 16.808 17.7229 17.0319C17.4527 17.2557 17.2512 17.5295 17.1185 17.8534C17.0426 18.0344 17.0047 18.2915 17.0047 18.6249V23.954Z" fill="white"/>
</svg>
