<svg width="45" height="45" viewBox="0 0 45 45" fill="none" xmlns="http://www.w3.org/2000/svg">
<path d="M28.2142 42.1932L28.2371 42.2066C30.2598 43.4944 32.6613 44.0538 35.045 43.7923C37.4286 43.5309 39.6518 42.4643 41.3474 40.7687L42.8214 39.2946C43.4798 38.6355 43.8496 37.7419 43.8496 36.8103C43.8496 35.8786 43.4798 34.9851 42.8214 34.3259L36.611 28.1193C35.9518 27.4609 35.0582 27.0911 34.1266 27.0911C33.195 27.0911 32.3014 27.4609 31.6422 28.1193C31.3162 28.4456 30.9291 28.7046 30.503 28.8812C30.0769 29.0579 29.6201 29.1488 29.1588 29.1488C28.6975 29.1488 28.2408 29.0579 27.8146 28.8812C27.3885 28.7046 27.0014 28.4456 26.6754 28.1193L16.7379 18.1799C16.0796 17.5207 15.7098 16.6271 15.7098 15.6955C15.7098 14.7639 16.0796 13.8703 16.7379 13.2111C17.0643 12.8852 17.3232 12.498 17.4999 12.0719C17.6766 11.6458 17.7675 11.189 17.7675 10.7277C17.7675 10.2664 17.6766 9.80966 17.4999 9.38354C17.3232 8.95741 17.0643 8.57029 16.7379 8.24431L10.5294 2.02815C9.8702 1.36979 8.97665 1 8.04501 1C7.11337 1 6.21982 1.36979 5.56064 2.02815L4.08659 3.5022C2.39129 5.19789 1.32476 7.4209 1.06301 9.80436C0.801261 12.1878 1.35993 14.5893 2.64682 16.6125L2.66205 16.6354C9.46748 26.7096 18.1415 35.3855 28.2142 42.1932V42.1932Z" stroke="#12A8D3" stroke-width="2" stroke-linecap="round" stroke-linejoin="round"/>
</svg>
