<svg width="41" height="45" viewBox="0 0 41 45" fill="none" xmlns="http://www.w3.org/2000/svg">
<path d="M18.2773 22.0028L26.1555 14.1246" stroke="#12A8D3" stroke-width="1.5" stroke-linecap="round" stroke-linejoin="round"/>
<path d="M26.1555 14.1246L27.2294 7.03483L33.3701 1L34.3192 5.96097L39.2801 6.91005L33.2453 13.0508L26.1555 14.1246V14.1246Z" stroke="#12A8D3" stroke-width="1.5" stroke-linecap="round" stroke-linejoin="round"/>
<path d="M37.2572 17.5675C38.2592 21.3659 38.0216 25.385 36.579 29.0388C35.1364 32.6926 32.5642 35.7901 29.2376 37.8794C25.911 39.9687 22.004 40.9407 18.0862 40.6536C14.1684 40.3665 10.4448 38.8353 7.45834 36.2833C4.47189 33.7313 2.37879 30.292 1.48428 26.4669C0.589764 22.6418 0.94061 18.631 2.48566 15.0193C4.03071 11.4076 6.68915 8.38395 10.0733 6.38924C13.4575 4.39453 17.3904 3.53309 21.2985 3.93055" stroke="#12A8D3" stroke-width="1.5" stroke-linecap="round" stroke-linejoin="round"/>
<path d="M29.0651 19.8815C29.5625 21.8869 29.4217 23.9974 28.6626 25.919C27.9034 27.8406 26.5636 29.4774 24.83 30.6014C23.0963 31.7253 21.0552 32.2804 18.9911 32.1891C16.927 32.0979 14.9428 31.365 13.3151 30.0925C11.6873 28.82 10.4972 27.0713 9.91048 25.0902C9.32379 23.1092 9.36982 20.9944 10.0421 19.0408C10.7145 17.0871 11.9796 15.3919 13.6611 14.1914C15.3427 12.9909 17.3569 12.345 19.423 12.3436" stroke="#12A8D3" stroke-width="1.5" stroke-linecap="round" stroke-linejoin="round"/>
<path d="M9.76952 37.8669L8.35156 43.5388" stroke="#12A8D3" stroke-width="1.5" stroke-linecap="round" stroke-linejoin="round"/>
<path d="M29.621 37.8669L31.0389 43.5388" stroke="#12A8D3" stroke-width="1.5" stroke-linecap="round" stroke-linejoin="round"/>
</svg>
