<svg width="33" height="33" viewBox="0 0 33 33" fill="none" xmlns="http://www.w3.org/2000/svg">
<circle cx="16.0735" cy="16.8823" r="16" fill="white" fill-opacity="0.05"/>
<path d="M18.9395 11.0657V11.063H19.651L19.911 11.1151C20.0843 11.149 20.2416 11.1933 20.383 11.2482C20.5244 11.3031 20.6612 11.3672 20.7935 11.4403C20.9257 11.5135 21.0457 11.5881 21.1533 11.664C21.26 11.739 21.3558 11.8186 21.4407 11.9028C21.5245 11.9879 21.6554 12.0098 21.8333 11.9686C22.0112 11.9275 22.2027 11.8703 22.408 11.7971C22.6132 11.7239 22.8162 11.6416 23.0168 11.5501C23.2175 11.4586 23.3397 11.4006 23.3835 11.3759C23.4264 11.3502 23.4492 11.3365 23.4519 11.3347L23.4547 11.3306L23.4683 11.3237L23.482 11.3168L23.4957 11.31L23.5094 11.3031L23.5121 11.299L23.5162 11.2963L23.5203 11.2935L23.5231 11.2894L23.5367 11.2853L23.5504 11.2825L23.5477 11.3031L23.5436 11.3237L23.5367 11.3443L23.5299 11.3649L23.5231 11.3786L23.5162 11.3923L23.5094 11.4129C23.5048 11.4266 23.5003 11.4449 23.4957 11.4678C23.4911 11.4907 23.4478 11.5821 23.3657 11.7422C23.2836 11.9023 23.181 12.0647 23.0579 12.2294C22.9347 12.394 22.8244 12.5184 22.7268 12.6026C22.6283 12.6877 22.563 12.7471 22.5311 12.781C22.4992 12.8158 22.4604 12.8478 22.4148 12.8771L22.3464 12.9223L22.3327 12.9292L22.319 12.9361L22.3163 12.9402L22.3122 12.9429L22.3081 12.9457L22.3054 12.9498L22.2917 12.9566L22.278 12.9635L22.2753 12.9676L22.2711 12.9704L22.267 12.9731L22.2643 12.9772L22.2616 12.9813L22.2575 12.9841L22.2534 12.9868L22.2506 12.9909H22.319L22.7021 12.9086C22.9575 12.8537 23.2015 12.7874 23.4341 12.7096L23.8036 12.5861L23.8446 12.5724L23.8651 12.5656L23.8788 12.5587L23.8925 12.5518L23.9062 12.545L23.9198 12.5381L23.9472 12.534L23.9746 12.5313V12.5587L23.9677 12.5614L23.9609 12.5656L23.9582 12.5697L23.9541 12.5724L23.9499 12.5752L23.9472 12.5793L23.9445 12.5834L23.9404 12.5861L23.9363 12.5889L23.9335 12.593L23.9308 12.5971L23.9267 12.5999L23.9198 12.6136L23.913 12.6273L23.9089 12.6301C23.9071 12.6328 23.8492 12.7105 23.7351 12.8633C23.6211 13.017 23.5596 13.0948 23.5504 13.0966C23.5413 13.0994 23.5285 13.1131 23.5121 13.1378C23.4966 13.1634 23.3999 13.2654 23.2221 13.4438C23.0442 13.6222 22.87 13.7809 22.6994 13.9199C22.5279 14.0599 22.4413 14.2319 22.4395 14.4359C22.4367 14.639 22.4262 14.8686 22.408 15.1247C22.3897 15.3809 22.3555 15.6576 22.3054 15.9549C22.2552 16.2522 22.1777 16.5884 22.0728 16.9635C21.9679 17.3386 21.8402 17.7045 21.6897 18.0613C21.5391 18.418 21.3818 18.7382 21.2176 19.0218C21.0534 19.3054 20.9029 19.5456 20.7661 19.7422C20.6293 19.9389 20.4902 20.1242 20.3488 20.298C20.2074 20.4718 20.0286 20.6676 19.8125 20.8853C19.5954 21.1021 19.4768 21.221 19.4567 21.2421C19.4358 21.2622 19.3464 21.3372 19.1885 21.4671C19.0317 21.5979 18.8629 21.7287 18.6823 21.8596C18.5026 21.9895 18.3375 22.0979 18.187 22.1848C18.0365 22.2717 17.855 22.3709 17.6425 22.4825C17.4309 22.5951 17.2019 22.6993 16.9556 22.7954C16.7093 22.8915 16.4494 22.9807 16.1757 23.063C15.9021 23.1453 15.6376 23.2094 15.3822 23.2551C15.1268 23.3008 14.8372 23.3397 14.5133 23.3717L14.0276 23.4198V23.4266H13.1383V23.4198L13.022 23.4129C12.9445 23.4083 12.8806 23.4037 12.8304 23.3992C12.7803 23.3946 12.591 23.3694 12.2626 23.3237C11.9342 23.278 11.6766 23.2322 11.4896 23.1865C11.3026 23.1407 11.0244 23.0538 10.655 22.9258C10.2855 22.7977 9.96948 22.6682 9.70679 22.5374C9.44501 22.4075 9.28082 22.3252 9.21423 22.2904C9.14855 22.2566 9.07467 22.2145 8.99258 22.1642L8.86944 22.0887L8.86671 22.0846L8.8626 22.0819L8.85849 22.0791L8.85575 22.075L8.84207 22.0681L8.82839 22.0613L8.82567 22.0572L8.82155 22.0544L8.81744 22.0517L8.81471 22.0475L8.81198 22.0434L8.80787 22.0407H8.80103V22.0132L8.81471 22.016L8.82839 22.0201L8.88996 22.027C8.93101 22.0315 9.04275 22.0384 9.22517 22.0475C9.40761 22.0567 9.60143 22.0567 9.80667 22.0475C10.0119 22.0384 10.2217 22.0178 10.436 21.9858C10.6504 21.9538 10.9035 21.8989 11.1954 21.8211C11.4873 21.7434 11.7555 21.651 11.9999 21.5439C12.2435 21.436 12.4168 21.3555 12.5199 21.3024C12.622 21.2503 12.778 21.1533 12.9878 21.0115L13.3025 20.7988L13.3052 20.7947L13.3093 20.792L13.3134 20.7892L13.3161 20.7851L13.3189 20.781L13.323 20.7783L13.3271 20.7755L13.3298 20.7714L13.3435 20.7673L13.3572 20.7645L13.3599 20.7508L13.364 20.7371L13.3682 20.7343L13.3709 20.7302L13.2614 20.7234C13.1885 20.7188 13.1178 20.7142 13.0493 20.7096C12.9809 20.7051 12.8738 20.6845 12.7278 20.6479C12.5819 20.6113 12.4245 20.5564 12.2558 20.4832C12.087 20.41 11.9229 20.3231 11.7632 20.2225C11.6036 20.1219 11.4882 20.0382 11.4171 19.9714C11.3468 19.9055 11.2556 19.8122 11.1434 19.6915C11.0321 19.5698 10.9354 19.4449 10.8534 19.3168C10.7713 19.1888 10.6928 19.041 10.618 18.8736L10.5045 18.6239L10.4976 18.6033L10.4908 18.5827L10.4867 18.569L10.4839 18.5553L10.5045 18.558L10.525 18.5621L10.6755 18.5827C10.7758 18.5964 10.9332 18.601 11.1475 18.5964C11.3619 18.5919 11.5101 18.5827 11.5922 18.569C11.6743 18.5553 11.7245 18.5461 11.7427 18.5415L11.7701 18.5347L11.8043 18.5278L11.8385 18.521L11.8412 18.5168L11.8453 18.5141L11.8494 18.5114L11.8522 18.5072L11.8248 18.5004L11.7974 18.4935L11.7701 18.4867L11.7427 18.4798L11.7153 18.4729C11.6971 18.4684 11.6652 18.4592 11.6196 18.4455C11.574 18.4318 11.4508 18.3814 11.2501 18.2945C11.0495 18.2076 10.8898 18.123 10.7713 18.0407C10.6524 17.9581 10.539 17.8678 10.4319 17.7704C10.3252 17.6716 10.208 17.5444 10.0803 17.3889C9.95261 17.2334 9.8386 17.0527 9.73826 16.8469C9.63792 16.641 9.56267 16.4444 9.5125 16.2568C9.46253 16.0704 9.42956 15.8798 9.414 15.6873L9.38936 15.3992L9.40304 15.4019L9.41672 15.406L9.43041 15.4129L9.44409 15.4198L9.45777 15.4266L9.47145 15.4335L9.68353 15.5295C9.82492 15.5936 10.0005 15.6485 10.2103 15.6942C10.4201 15.7399 10.5455 15.7651 10.5866 15.7697L10.6481 15.7765H10.7713L10.7685 15.7724L10.7644 15.7697L10.7603 15.7669L10.7576 15.7628L10.7549 15.7587L10.7507 15.756L10.7466 15.7532L10.7439 15.7491L10.7302 15.7422L10.7165 15.7354L10.7138 15.7313L10.7097 15.7285L10.7056 15.7258L10.7029 15.7216L10.6892 15.7148L10.6755 15.7079L10.6728 15.7038C10.67 15.702 10.6308 15.6727 10.5551 15.616C10.4803 15.5584 10.4018 15.4838 10.3197 15.3923C10.2377 15.3008 10.1556 15.2048 10.0735 15.1042C9.99123 15.0033 9.91797 14.8954 9.85455 14.7817C9.79071 14.6673 9.72321 14.5219 9.65206 14.3453C9.58183 14.1697 9.52847 13.9927 9.49198 13.8143C9.4555 13.6359 9.43498 13.4598 9.43041 13.286C9.42585 13.1122 9.43041 12.9635 9.44409 12.84C9.45777 12.7165 9.48514 12.577 9.52618 12.4215C9.56723 12.266 9.62653 12.1013 9.70405 11.9275L9.82035 11.6668L9.82719 11.6462L9.83403 11.6256L9.83815 11.6229L9.84087 11.6187L9.84361 11.6146L9.84771 11.6119L9.85183 11.6146L9.85455 11.6187L9.85729 11.6229L9.8614 11.6256L9.86551 11.6283L9.86824 11.6325L9.87097 11.6366L9.87508 11.6393L9.88192 11.653L9.88876 11.6668L9.89288 11.6695L9.8956 11.6736L10.0803 11.8795C10.2035 12.0167 10.3494 12.1699 10.5181 12.3391C10.6869 12.5084 10.7804 12.5962 10.7986 12.6026C10.8169 12.6099 10.8397 12.631 10.867 12.6657C10.8944 12.6996 10.9856 12.7805 11.1407 12.9086C11.2958 13.0367 11.4987 13.1853 11.7495 13.3546C12.0004 13.5238 12.2786 13.6908 12.5842 13.8554C12.8897 14.0201 13.2181 14.1688 13.5693 14.3014C13.9205 14.4341 14.1667 14.521 14.3081 14.5621C14.4495 14.6033 14.6912 14.6559 15.0333 14.7199C15.3753 14.784 15.633 14.8251 15.8063 14.8434C15.9796 14.8617 16.0982 14.8722 16.162 14.875L16.2578 14.8777L16.2551 14.8572L16.251 14.8366L16.2236 14.665C16.2054 14.5507 16.1963 14.3906 16.1963 14.1848C16.1963 13.9789 16.2122 13.7891 16.2441 13.6153C16.2761 13.4415 16.324 13.2654 16.3878 13.087C16.4517 12.9086 16.5141 12.7654 16.5752 12.6575C16.6373 12.5505 16.7185 12.4283 16.8188 12.2911C16.9191 12.1539 17.0491 12.0121 17.2087 11.8657C17.3684 11.7194 17.5508 11.589 17.756 11.4747C17.9613 11.3603 18.1505 11.2734 18.3238 11.2139C18.4971 11.1545 18.6431 11.1156 18.7617 11.0973C18.8802 11.079 18.9395 11.0685 18.9395 11.0657V11.0657Z" fill="white"/>
</svg>
